<svg id="Capa_1" enable-background="new 0 0 384.668 384.668" height="512" viewBox="0 0 384.668 384.668" width="512" xmlns="http://www.w3.org/2000/svg"><g><g><path d="m295.326 124.149c9.493-8.252 14.89-20.226 14.89-32.821v-66.51h24.817c6.825 0 12.409-5.584 12.409-12.409s-5.584-12.409-12.408-12.409h-24.817-235.765-24.817c-6.825 0-12.409 5.584-12.409 12.409s5.584 12.409 12.409 12.409h24.817v72.591c0 12.657 5.46 24.693 15.077 32.945l55.094 47.773c4.157 3.599 6.515 8.686 6.515 14.208s-2.296 10.609-6.515 14.208l-55.094 47.711c-9.617 8.314-15.077 20.35-15.077 33.007v72.591h-24.817c-6.825 0-12.409 5.584-12.409 12.409s5.584 12.409 12.409 12.409h24.817 235.764 24.817c6.825 0 12.409-5.584 12.409-12.409s-5.584-12.409-12.409-12.409h-24.817v-66.51c0-12.595-5.46-24.569-14.89-32.821l-61.795-54.04c-4.157-3.599-6.39-8.624-6.39-14.146s2.296-10.547 6.39-14.146zm-78.113 101.006 61.795 54.04c4.095 3.599 6.39 8.748 6.39 14.146v66.51h-186.129v-72.591c0-5.46 2.358-10.609 6.453-14.208l55.094-47.711c9.555-8.314 15.077-20.288 15.077-32.945s-5.46-24.693-15.077-32.945l-55.094-47.773c-4.095-3.599-6.453-8.81-6.453-14.27v-72.591h186.13v66.51c0 5.398-2.358 10.547-6.453 14.146l-61.795 54.04c-9.431 8.252-14.89 20.226-14.89 32.821s5.46 24.569 14.952 32.821z"/><path d="m272.99 91.328v-9.927c0-3.847-3.102-6.949-6.887-6.949h-147.538c-3.785 0-6.887 3.102-6.887 6.887v16.069c0 3.661 1.613 7.135 4.343 9.493l54.226 47.029c6.701 5.832 12.223 13.091 15.139 21.467 7.073 20.102.869 41.445-14.27 54.536l-55.094 47.773c-2.73 2.42-4.343 5.832-4.343 9.493v54.66c0 3.102 2.482 5.584 5.522 5.584h150.269c3.04 0 5.522-2.482 5.522-5.522v-48.58c0-3.661-1.551-7.073-4.281-9.493l-60.74-53.171c-6.639-5.832-12.098-13.029-15.077-21.343-7.135-20.04-.993-41.321 14.022-54.536l61.795-54.04c2.728-2.357 4.279-5.832 4.279-9.43z"/></g></g></svg>