<svg xmlns="http://www.w3.org/2000/svg" width="14.226" height="10.669" viewBox="0 0 14.226 10.669">
  <path id="Hide" d="M8.879,21.454l.808-.808a2.658,2.658,0,0,1-3.262,3.262l.808-.808a1.77,1.77,0,0,0,1.646-1.646Zm5.291-.336a9.311,9.311,0,0,0-2.346-2.609l-.647.647a8.9,8.9,0,0,1,2.082,2.179,7.649,7.649,0,0,1-6.145,3.556,6.532,6.532,0,0,1-1.494-.177l-.731.731a7.53,7.53,0,0,0,2.224.335c4.654,0,6.961-4.057,7.057-4.23A.444.444,0,0,0,14.17,21.119Zm-1.852-4.36-9.78,9.78a.444.444,0,1,1-.629-.629l1.244-1.244a9.328,9.328,0,0,1-3.1-3.116.444.444,0,0,1,0-.432c.1-.172,2.4-4.23,7.057-4.23a7.486,7.486,0,0,1,3.137.68l1.439-1.439a.444.444,0,1,1,.629.629ZM3.816,24l1.126-1.126a2.663,2.663,0,0,1,3.715-3.715l.91-.91a6.546,6.546,0,0,0-2.453-.475A7.648,7.648,0,0,0,.968,21.334,8.729,8.729,0,0,0,3.816,24Zm1.771-1.771L8.01,19.808a1.758,1.758,0,0,0-.9-.252,1.78,1.78,0,0,0-1.778,1.778,1.758,1.758,0,0,0,.252.9Z" transform="translate(0 -16)" fill="#aaa"/>
</svg>
